<?xml version="1.0" standalone="no"?>
<!DOCTYPE svg PUBLIC "-//W3C//DTD SVG 20010904//EN"
 "http://www.w3.org/TR/2001/REC-SVG-20010904/DTD/svg10.dtd">
<svg version="1.0" xmlns="http://www.w3.org/2000/svg"
 width="4832.000000pt" height="4832.000000pt" viewBox="0 0 4832.000000 4832.000000"
 preserveAspectRatio="xMidYMid meet">
<metadata>
Created by potrace 1.14, written by Peter Selinger 2001-2017
</metadata>
<g transform="translate(0.000000,4832.000000) scale(0.100000,-0.100000)"
fill="#000000" stroke="none">
<path d="M40287 28364 c-1 -1 -36 -5 -77 -8 -100 -8 -131 -13 -220 -37 -81
-22 -191 -67 -202 -84 -4 -5 -8 -7 -8 -2 0 18 -168 -102 -228 -163 -50 -51
-112 -125 -128 -152 -33 -56 -96 -192 -100 -215 -3 -15 -7 -31 -10 -35 -11
-17 -30 -164 -30 -220 1 -32 -3 -58 -7 -58 -5 0 -5 -6 -1 -12 5 -7 9 -26 10
-43 10 -193 86 -384 208 -518 15 -18 33 -39 40 -47 10 -14 63 -61 114 -102 11
-9 40 -27 64 -40 24 -13 45 -25 48 -28 21 -21 179 -81 262 -99 190 -42 436
-42 593 -1 22 6 51 13 64 16 13 3 32 9 43 15 10 5 18 7 18 4 0 -11 195 96 248
137 54 41 128 115 191 188 24 28 133 222 130 233 0 1 2 9 5 17 10 32 20 78 35
154 13 71 5 291 -13 361 -9 33 -19 71 -22 85 -8 36 -85 190 -95 190 -5 0 -9 5
-9 11 0 32 -170 206 -260 267 -30 20 -57 39 -60 42 -29 29 -248 109 -340 124
-50 8 -258 24 -263 20z"/>
<path d="M6938 27721 c-2 -9 -4 -1712 -3 -3785 0 -3761 0 -3769 20 -3773 11
-2 40 -3 65 -3 25 1 54 1 65 1 11 0 38 0 60 0 22 0 47 0 55 0 74 -2 113 0 120
4 5 3 11 2 14 -3 3 -5 28 -6 56 -2 27 4 52 5 54 2 9 -8 136 -7 136 1 0 5 5 5
10 2 9 -5 41 -6 180 -4 8 0 43 -2 78 -3 34 -2 62 1 62 5 0 5 4 6 9 2 5 -3 43
-5 83 -5 40 1 80 1 88 1 8 0 43 -2 78 -3 34 -2 62 -1 62 2 0 3 31 3 70 0 38
-3 80 -3 92 1 13 3 34 3 48 -1 13 -3 46 -3 73 0 26 4 50 4 52 1 1 -3 30 -5 62
-3 l59 4 0 1596 c1 1395 3 1670 18 1767 4 32 18 108 23 130 7 32 8 38 22 80
18 57 19 59 17 65 0 3 7 18 17 33 9 15 15 27 12 27 -6 0 73 150 84 160 3 3 19
24 35 47 33 50 126 147 175 183 18 14 46 36 62 48 16 13 29 20 29 16 0 -4 8 0
18 8 43 38 233 111 317 123 22 4 54 10 71 14 25 7 389 8 389 2 0 -3 18 -7 70
-15 62 -10 191 -54 259 -88 228 -115 388 -298 491 -563 5 -11 9 -24 10 -30 2
-5 10 -34 18 -62 9 -29 14 -53 11 -53 -3 0 -1 -8 5 -17 5 -10 12 -45 16 -78 4
-33 9 -71 12 -85 2 -14 5 -113 7 -221 1 -107 6 -201 10 -207 4 -7 4 -12 -1
-12 -4 0 -8 -133 -8 -295 0 -162 4 -295 8 -295 5 0 5 -6 0 -12 -10 -18 -11
-210 0 -225 5 -7 6 -13 1 -13 -5 0 -8 -75 -7 -167 2 -93 3 -175 3 -183 0 -24
0 -274 0 -285 0 -5 -1 -28 -3 -50 -2 -22 1 -48 5 -57 5 -10 5 -18 1 -18 -10 0
-10 -291 0 -307 5 -7 5 -13 0 -13 -4 0 -7 -150 -6 -332 2 -183 3 -337 3 -343
0 -5 -1 -61 -3 -123 -1 -61 2 -112 7 -112 5 0 3 -6 -3 -14 -17 -20 13 -36 48
-27 14 4 37 5 51 1 13 -3 46 -3 72 0 27 4 48 4 48 1 0 -5 40 -6 170 -1 19 0
63 0 98 -2 34 -2 62 1 62 5 0 5 4 6 9 2 5 -3 43 -5 83 -5 40 1 80 1 88 1 8 0
43 -2 78 -3 34 -2 62 1 62 5 0 5 4 6 9 2 5 -3 43 -5 83 -5 40 1 80 1 88 1 8 0
43 -2 78 -3 34 -2 62 -1 62 2 0 3 31 3 70 0 38 -3 80 -3 92 1 13 3 34 3 48 -1
13 -3 46 -3 72 0 27 4 50 4 53 2 2 -3 39 -4 82 -3 43 1 91 2 106 1 18 0 26 4
22 10 -4 6 -1 17 5 25 7 8 9 15 4 15 -7 0 -10 2498 -3 2535 1 6 0 15 -1 20 -6
29 -4 298 3 302 4 2 5 9 1 14 -3 5 -7 164 -9 352 -3 188 -6 360 -9 382 -2 22
-7 71 -11 108 -3 38 -8 77 -10 87 -2 10 -7 40 -10 67 -4 26 -11 64 -15 83 -5
19 -12 51 -15 70 -10 56 -47 203 -64 250 -71 196 -84 229 -143 345 -47 93
-143 249 -175 285 -13 14 -23 28 -23 32 0 3 -6 13 -12 20 -7 7 -42 47 -78 88
-98 112 -204 210 -325 300 -33 25 -63 49 -66 53 -3 5 -9 7 -12 5 -4 -1 -15 4
-25 12 -16 13 -49 33 -107 64 -11 6 -23 15 -26 19 -3 5 -9 8 -13 7 -4 -1 -32
11 -63 25 -91 44 -143 65 -143 58 0 -3 -6 -1 -12 4 -12 10 -94 39 -134 48 -10
2 -44 11 -74 19 -30 9 -73 18 -95 22 -22 3 -42 7 -45 9 -3 2 -28 6 -55 9 -28
4 -61 8 -75 11 -132 28 -565 22 -740 -11 -19 -3 -46 -8 -60 -10 -109 -15 -285
-66 -435 -124 -36 -15 -240 -113 -245 -119 -3 -3 -21 -15 -40 -25 -189 -103
-404 -294 -557 -495 -10 -14 -13 -14 -14 -1 0 8 -2 598 -3 1310 l-1 1295 -872
1 c-789 1 -872 -1 -875 -15z"/>
<path d="M36109 27736 c-6 -5 -2 -7569 3 -7572 4 -3 34 -5 65 -4 79 1 79 1
151 -2 34 -2 62 1 62 5 0 5 4 6 9 2 5 -3 43 -5 83 -5 40 1 80 1 88 1 8 0 43
-2 78 -3 34 -2 62 1 62 5 0 5 4 6 9 2 5 -3 43 -5 83 -5 40 1 80 1 88 1 8 0 43
-2 78 -3 34 -2 62 1 62 5 0 5 4 6 9 2 5 -3 43 -5 83 -5 40 1 80 1 88 1 8 0 43
-2 78 -3 34 -2 62 1 62 5 0 5 4 6 9 2 5 -3 43 -5 83 -5 40 1 80 1 88 1 8 0 43
-2 78 -3 34 -2 62 0 62 3 0 3 21 3 48 0 26 -3 67 -4 93 -1 l45 5 0 3785 -1
3785 -872 1 c-480 1 -874 1 -874 0z"/>
<path d="M2435 27442 c-2 -3 -24 -6 -47 -7 -74 -4 -284 -31 -333 -42 -11 -2
-31 -6 -45 -8 -179 -28 -584 -157 -665 -212 -11 -7 -27 -13 -36 -13 -10 0 -19
-3 -21 -7 -1 -5 -28 -20 -58 -35 -57 -29 -111 -59 -120 -68 -3 -3 -18 -12 -34
-20 -17 -8 -58 -35 -92 -60 -34 -25 -72 -52 -84 -60 -13 -8 -28 -19 -34 -25
-6 -5 -38 -32 -71 -59 -149 -124 -364 -374 -389 -453 -4 -13 -11 -23 -15 -23
-5 0 -14 -15 -22 -32 -7 -18 -15 -35 -18 -38 -15 -13 -73 -150 -109 -255 -48
-138 -89 -327 -96 -440 -1 -22 -5 -45 -8 -50 -7 -13 -3 -435 6 -505 3 -30 9
-71 13 -90 4 -19 8 -42 9 -50 1 -8 5 -25 7 -36 3 -12 8 -39 11 -59 4 -21 11
-44 16 -50 5 -7 8 -14 5 -17 -3 -2 4 -31 16 -64 11 -32 22 -63 23 -69 1 -5 8
-20 14 -32 7 -13 10 -23 6 -23 -3 0 -1 -7 6 -15 7 -8 9 -15 4 -15 -5 0 -4 -4
1 -8 6 -4 25 -38 44 -77 86 -174 274 -406 461 -565 142 -121 402 -283 517
-321 18 -6 33 -14 33 -18 0 -4 6 -8 13 -8 6 -1 46 -16 87 -34 121 -52 132 -57
231 -94 52 -20 101 -38 109 -42 8 -3 24 -8 35 -10 10 -2 22 -8 26 -14 3 -6 9
-10 13 -9 4 1 17 -1 29 -5 12 -4 27 -8 32 -10 6 -2 75 -26 155 -53 139 -47
348 -114 400 -127 14 -3 34 -10 45 -14 11 -5 67 -23 125 -41 58 -18 110 -36
115 -39 6 -3 16 -6 24 -7 13 -3 31 -9 211 -79 89 -34 279 -123 290 -135 3 -3
37 -26 76 -53 168 -112 288 -249 326 -372 24 -77 29 -120 29 -215 -2 -129 -13
-183 -61 -285 -38 -82 -49 -98 -123 -173 -34 -36 -149 -116 -159 -112 -2 1
-28 -10 -58 -23 -66 -29 -129 -46 -235 -63 -49 -8 -327 -13 -339 -6 -5 3 -25
6 -45 8 -37 3 -42 4 -129 28 -118 32 -263 117 -338 197 -129 139 -203 310
-238 554 -3 20 -12 20 -934 23 l-932 2 5 -87 c8 -146 21 -232 69 -458 2 -5 13
-43 25 -82 13 -40 23 -76 23 -80 0 -5 7 -17 14 -28 8 -11 14 -27 14 -35 0 -51
209 -417 277 -486 7 -7 13 -15 13 -17 0 -18 253 -270 329 -327 18 -14 38 -30
45 -36 26 -24 175 -123 256 -170 114 -67 229 -122 370 -178 81 -33 176 -66
205 -72 11 -2 31 -8 45 -14 26 -10 206 -56 250 -64 14 -2 47 -9 73 -15 44 -10
88 -18 157 -26 65 -8 126 -17 140 -20 13 -4 94 -10 240 -21 65 -4 415 -4 480
0 168 12 231 17 252 22 12 3 39 7 58 9 119 16 229 37 355 70 55 15 105 27 110
28 6 2 15 5 20 8 6 4 22 9 37 13 15 3 40 11 55 18 15 6 30 12 33 12 18 5 107
41 116 48 6 4 14 5 17 1 4 -3 7 -1 7 5 0 7 7 12 15 12 14 0 215 98 225 110 3
4 13 9 22 13 24 8 162 100 166 109 2 5 8 8 14 8 9 0 82 55 116 88 7 6 17 12
22 12 13 0 250 241 301 306 181 230 339 549 395 794 4 19 9 37 9 40 1 3 5 29
10 58 4 28 10 52 14 52 3 0 6 12 7 28 0 15 4 65 9 112 23 217 8 496 -37 695
-43 196 -123 382 -226 530 -30 44 -58 82 -61 85 -3 3 -28 32 -56 65 -96 114
-273 281 -352 332 -15 10 -34 23 -41 30 -27 26 -197 126 -299 176 -60 28 -109
55 -111 60 -2 4 -10 7 -17 7 -7 0 -53 18 -102 41 -48 22 -104 46 -123 54 -19
7 -80 31 -135 54 -55 23 -102 42 -105 43 -3 0 -16 5 -30 11 -14 6 -28 11 -32
12 -5 2 -10 4 -13 5 -3 1 -8 3 -12 5 -9 2 -17 5 -113 42 -36 14 -72 27 -80 28
-15 4 -116 39 -155 54 -11 5 -36 13 -55 20 -229 77 -375 127 -438 152 -42 17
-84 32 -92 34 -12 3 -89 33 -185 75 -46 19 -313 151 -349 172 -22 13 -47 30
-57 38 -9 8 -38 33 -64 55 -55 47 -119 129 -145 188 -10 23 -19 44 -19 47 0 3
-5 18 -11 34 -17 47 -23 95 -23 196 1 98 3 117 22 185 6 22 10 42 9 45 -1 3 5
16 12 30 8 14 14 28 15 32 0 4 6 13 13 20 6 6 12 16 12 21 0 13 52 78 93 117
78 71 195 136 282 157 40 9 50 11 50 13 0 13 275 18 355 6 30 -4 67 -10 81
-12 39 -5 168 -53 219 -81 85 -47 240 -174 240 -197 0 -4 9 -17 21 -29 17 -18
69 -107 74 -127 1 -3 5 -12 8 -20 18 -42 38 -115 42 -148 2 -20 5 -39 6 -42 4
-12 6 -27 7 -52 l2 -27 947 2 c941 2 948 2 948 22 0 11 -3 34 -6 52 -4 18 -2
36 4 42 7 7 8 11 1 11 -6 0 -11 6 -11 13 -4 61 -23 196 -38 255 -10 42 -13 57
-25 107 -23 100 -83 263 -140 380 -59 120 -100 196 -111 205 -3 3 -24 32 -46
65 -105 155 -225 277 -459 465 -93 74 -312 200 -459 264 -60 26 -118 52 -127
57 -10 5 -22 9 -27 9 -5 0 -22 5 -38 12 -15 6 -30 12 -33 13 -3 0 -30 9 -60
18 -30 10 -68 22 -85 27 -16 5 -59 16 -95 25 -63 15 -84 20 -132 29 -13 3 -48
10 -78 16 -30 6 -77 13 -105 16 -27 3 -56 7 -64 10 -13 4 -98 13 -181 18 -20
1 -40 5 -45 8 -12 7 -643 7 -650 0z"/>
<path d="M30188 27337 c-2 -7 -4 -1623 -4 -3592 l1 -3580 35 -2 c58 -5 132 -3
141 3 5 3 9 1 9 -3 0 -5 25 -6 55 -3 31 3 57 4 60 2 4 -4 115 -5 133 -2 4 1
22 1 40 0 100 -5 182 -4 182 3 0 5 4 6 9 3 11 -7 220 -11 226 -4 3 2 28 2 55
-2 28 -4 53 -3 56 2 3 5 9 6 14 3 8 -5 40 -6 170 -5 36 1 67 1 70 0 20 -4 230
-4 230 1 0 3 24 2 54 -1 30 -3 62 -3 72 0 9 4 36 3 59 0 23 -4 51 -3 61 1 19
6 19 45 19 1457 l0 1450 1070 0 c589 1 1082 1 1096 1 l27 1 0 680 0 680 -1093
0 c-865 0 -1094 3 -1097 13 -2 6 -4 347 -3 757 l0 745 1455 1 c800 1 1460 2
1465 3 7 1 10 237 10 699 l0 697 -2337 2 c-1812 2 -2337 -1 -2340 -10z"/>
<path d="M16617 25954 c-1 -1 -42 -4 -92 -8 -162 -10 -342 -34 -465 -61 -14
-3 -36 -8 -50 -10 -14 -2 -38 -9 -55 -15 -16 -6 -31 -11 -33 -11 -1 1 -12 -1
-25 -4 -13 -4 -32 -8 -43 -10 -10 -2 -20 -4 -21 -5 -2 -2 -7 -4 -13 -5 -5 -1
-12 -4 -15 -5 -3 -1 -9 -4 -15 -5 -5 -1 -11 -3 -12 -5 -2 -1 -10 -3 -19 -5
-16 -3 -169 -57 -219 -78 -14 -6 -27 -11 -30 -12 -88 -30 -415 -203 -432 -229
-4 -6 -8 -7 -8 -2 0 5 -8 2 -17 -6 -10 -9 -49 -37 -88 -63 -140 -96 -350 -287
-472 -430 -58 -68 -163 -206 -163 -214 0 -4 -8 -16 -17 -27 -26 -28 -73 -102
-73 -114 0 -5 -4 -10 -9 -10 -5 0 -11 -8 -14 -17 -4 -10 -22 -45 -42 -78 -69
-118 -146 -288 -202 -450 -34 -98 -38 -113 -48 -156 -2 -12 -9 -36 -15 -54 -6
-18 -12 -41 -14 -51 -2 -10 -11 -54 -20 -96 -15 -74 -24 -123 -31 -177 -2 -14
-4 -26 -5 -26 -3 0 -7 -38 -14 -119 -4 -43 -9 -101 -12 -130 -7 -71 -7 -417 0
-499 18 -198 24 -262 26 -262 1 0 3 -16 6 -35 2 -19 6 -44 9 -56 2 -12 7 -39
10 -60 22 -148 127 -501 180 -604 9 -17 14 -30 11 -30 -6 0 132 -270 155 -302
11 -14 19 -30 19 -35 0 -6 9 -18 20 -28 11 -10 20 -22 20 -26 0 -8 122 -180
145 -205 5 -6 28 -33 50 -60 70 -86 267 -278 365 -356 146 -116 277 -201 445
-289 89 -46 154 -75 335 -148 30 -12 63 -24 73 -26 10 -2 55 -15 100 -29 86
-26 156 -45 191 -52 241 -51 425 -76 578 -78 27 -1 48 -3 48 -6 0 -3 47 -5
104 -5 57 0 102 4 99 8 -3 5 4 4 14 -2 11 -6 23 -8 25 -5 3 2 54 7 114 9 119
6 173 10 249 21 28 3 61 7 75 9 14 1 36 5 50 8 14 4 42 9 63 12 75 10 322 71
377 92 8 3 21 7 27 9 16 3 140 49 208 76 121 49 318 146 323 160 2 4 12 8 23
8 10 0 19 4 19 8 0 4 19 18 43 30 60 32 234 148 263 176 6 6 26 22 44 36 142
107 391 372 490 520 8 12 20 28 25 34 11 13 16 21 67 105 76 125 205 370 213
406 2 10 6 21 38 98 9 20 13 37 10 37 -3 0 -1 6 4 13 9 11 34 77 39 102 1 6 9
35 18 65 10 30 20 66 23 80 10 48 11 55 13 55 2 0 5 14 13 60 3 17 8 42 11 58
14 69 17 84 21 117 3 19 7 44 9 55 6 26 19 171 20 213 0 17 3 32 6 32 6 0 4
395 -3 505 -7 93 -15 166 -28 250 -10 60 -15 95 -23 150 -14 93 -112 427 -151
510 -7 17 -23 54 -35 84 -32 83 -146 298 -201 379 -16 24 -29 47 -29 51 0 4
-9 16 -20 26 -11 10 -20 24 -20 32 0 7 -4 13 -8 13 -5 0 -17 16 -28 35 -10 19
-21 35 -25 35 -3 0 -18 17 -31 38 -57 84 -238 274 -358 376 -47 39 -86 74 -88
79 -2 4 -10 7 -18 7 -8 0 -14 4 -14 9 0 5 -13 17 -29 28 -16 10 -60 39 -97 64
-74 49 -119 78 -146 94 -30 18 -292 150 -298 150 -3 0 -10 3 -15 7 -6 4 -56
23 -110 43 -55 20 -107 39 -115 42 -22 9 -156 49 -192 59 -69 17 -71 17 -193
42 -55 12 -118 24 -140 27 -22 3 -53 8 -70 10 -29 5 -92 11 -205 21 -55 5
-429 12 -433 8z m245 -1518 c77 -4 186 -21 228 -37 14 -5 34 -11 45 -13 31 -7
139 -53 177 -76 18 -11 44 -25 58 -32 21 -10 103 -71 120 -88 3 -3 19 -16 35
-30 54 -44 161 -167 207 -237 47 -72 128 -233 128 -255 0 -7 7 -26 15 -41 8
-16 16 -40 19 -55 2 -15 5 -27 6 -27 4 0 39 -177 46 -234 13 -111 15 -144 15
-276 0 -154 -7 -291 -16 -305 -4 -6 -8 -32 -10 -59 -3 -27 -9 -68 -15 -92 -6
-24 -12 -52 -15 -61 -15 -66 -39 -139 -46 -144 -5 -3 -9 -12 -9 -20 0 -23 -76
-170 -127 -247 -43 -64 -209 -247 -225 -247 -4 0 -24 -16 -45 -35 -21 -19 -43
-35 -50 -35 -7 0 -16 -6 -20 -13 -10 -16 -201 -110 -258 -127 -76 -22 -156
-40 -203 -46 -101 -13 -324 -6 -402 12 -14 3 -41 9 -60 14 -87 19 -300 113
-300 132 0 4 -6 8 -13 8 -20 0 -166 122 -217 180 -25 28 -55 63 -67 77 -13 14
-23 29 -23 34 0 4 -6 14 -14 22 -31 30 -155 287 -139 287 3 0 1 6 -4 13 -12
14 -30 76 -36 122 -2 12 -6 25 -9 30 -3 6 -9 30 -12 55 -3 25 -8 56 -11 70
-21 101 -28 509 -12 638 6 52 35 205 51 272 38 155 147 363 250 474 15 17 40
45 55 61 53 59 232 195 258 196 5 0 15 7 23 14 8 7 18 14 22 14 5 1 32 12 62
25 44 20 96 36 126 41 3 0 10 3 15 7 6 3 30 9 55 13 25 4 48 8 51 11 4 2 48 6
99 8 51 3 94 7 97 10 3 3 10 3 14 0 5 -3 41 -6 81 -8z"/>
<path d="M20411 25872 c-8 -3 0 -53 16 -92 3 -8 7 -24 9 -35 1 -11 14 -58 28
-105 14 -47 28 -97 31 -112 3 -15 10 -39 15 -53 6 -15 8 -30 5 -35 -3 -5 -2
-10 3 -12 7 -3 31 -88 48 -167 3 -13 9 -32 15 -42 5 -10 9 -22 8 -26 -1 -4 0
-10 1 -13 1 -3 3 -12 5 -20 2 -8 13 -46 24 -85 11 -38 17 -73 15 -77 -3 -4 0
-8 7 -8 7 0 10 -2 7 -6 -3 -3 1 -26 9 -52 8 -26 16 -54 18 -62 6 -27 44 -164
64 -233 11 -37 20 -70 20 -72 1 -3 1 -6 2 -7 0 -2 2 -10 4 -18 1 -8 10 -42 20
-75 9 -33 25 -91 35 -130 11 -38 23 -85 29 -102 5 -18 8 -33 5 -33 -3 0 0 -10
7 -21 6 -12 12 -31 14 -43 4 -23 66 -251 90 -330 8 -26 15 -57 15 -67 0 -11 5
-19 11 -19 5 0 8 -4 5 -8 -3 -5 2 -31 10 -58 9 -27 18 -60 20 -74 3 -14 14
-56 25 -95 21 -75 27 -98 59 -215 34 -124 39 -143 56 -200 9 -30 18 -68 20
-83 2 -16 6 -33 9 -38 4 -5 8 -17 10 -26 2 -10 20 -76 40 -148 31 -111 44
-159 59 -220 2 -5 6 -17 9 -25 3 -8 8 -26 10 -40 3 -14 22 -83 42 -155 19 -71
37 -137 40 -145 2 -8 4 -16 5 -17 2 -2 3 -11 4 -20 1 -10 4 -22 7 -28 4 -5 10
-26 15 -45 10 -47 9 -42 40 -150 15 -52 28 -104 29 -115 2 -11 7 -31 13 -45 5
-14 10 -28 11 -32 1 -4 3 -13 5 -20 2 -7 9 -33 16 -58 6 -25 13 -52 15 -60 2
-8 4 -15 5 -15 1 0 3 -7 5 -15 16 -66 21 -83 50 -190 14 -52 27 -101 29 -110
2 -8 5 -22 8 -30 3 -8 10 -33 16 -55 6 -22 19 -67 28 -100 10 -33 19 -68 21
-77 1 -9 17 -65 33 -125 17 -59 33 -115 35 -123 4 -20 39 -148 65 -240 11 -41
23 -86 26 -100 2 -14 7 -32 11 -40 3 -8 8 -24 10 -35 2 -11 14 -56 27 -100
l23 -80 44 -3 c24 -1 60 -2 79 -1 19 1 42 1 50 0 8 -1 33 -1 55 0 22 1 47 1
55 0 40 -3 114 0 121 4 4 3 10 2 13 -3 3 -5 28 -6 56 -2 27 4 50 4 50 1 0 -3
27 -6 60 -6 33 0 60 3 60 6 0 3 23 3 50 -1 28 -4 53 -4 55 0 2 3 29 3 59 0 31
-3 61 -3 67 0 5 4 30 4 54 0 24 -4 49 -4 55 0 6 4 28 4 48 0 20 -3 51 -3 67 0
17 3 41 3 55 0 14 -4 39 -3 55 0 17 3 41 4 55 0 14 -3 44 -3 67 0 23 4 47 4
53 0 6 -4 31 -4 55 0 25 4 47 5 49 2 7 -6 226 -8 226 -1 0 3 25 2 55 -1 31 -3
58 -4 60 -1 3 2 26 5 51 5 46 1 47 2 59 44 7 23 11 42 9 42 -2 0 3 18 11 40 8
22 14 42 15 45 0 3 0 6 1 8 1 4 7 31 12 57 3 14 15 63 27 110 13 47 24 94 26
105 1 11 3 21 4 23 2 1 4 7 5 12 1 6 3 11 4 13 2 1 4 11 6 22 4 16 46 184 79
315 8 31 28 116 32 139 3 13 9 32 15 43 5 10 7 18 5 18 -3 0 -1 11 4 25 5 14
12 36 14 48 5 29 52 216 71 287 8 30 26 102 41 160 14 58 43 177 65 265 22 88
42 167 44 175 2 8 4 15 5 15 1 0 3 10 6 22 2 12 40 165 84 340 45 175 83 325
85 333 1 8 8 35 15 60 7 25 14 56 17 69 2 14 13 57 24 97 11 40 22 81 23 91 2
10 9 38 16 63 7 25 13 52 15 60 2 8 8 35 15 60 7 25 14 56 16 70 3 14 8 34 11
45 4 11 8 25 9 30 1 6 9 37 18 70 9 33 19 69 21 80 2 11 6 29 9 40 7 26 26 96
31 115 2 8 4 18 4 23 2 15 17 6 18 -10 2 -21 8 -49 24 -113 6 -25 12 -54 15
-65 2 -11 11 -49 20 -85 9 -36 17 -69 19 -75 1 -5 5 -21 8 -35 4 -14 9 -36 12
-50 2 -14 12 -52 20 -85 9 -33 18 -69 20 -80 2 -11 11 -46 19 -77 9 -32 18
-71 21 -87 3 -17 10 -42 15 -56 5 -14 9 -29 9 -33 -1 -4 0 -10 1 -14 1 -5 3
-11 4 -15 14 -64 39 -171 44 -183 3 -8 7 -24 9 -35 2 -11 8 -38 14 -60 13 -48
19 -73 24 -100 2 -11 11 -47 20 -80 8 -33 18 -71 20 -85 3 -14 8 -31 11 -39 2
-8 7 -30 10 -50 3 -20 9 -40 12 -46 4 -5 7 -16 9 -24 1 -7 7 -34 13 -60 6 -25
12 -55 15 -66 2 -11 18 -76 35 -145 34 -139 79 -321 87 -354 16 -69 24 -104
29 -131 3 -16 10 -38 16 -48 5 -10 7 -21 4 -24 -2 -3 0 -17 6 -32 5 -14 12
-37 14 -51 3 -14 10 -43 16 -65 6 -22 12 -47 13 -55 1 -8 10 -44 20 -80 9 -36
19 -73 21 -83 2 -10 5 -26 8 -35 3 -9 7 -28 10 -42 6 -30 10 -47 30 -125 18
-74 64 -261 72 -295 8 -36 21 -89 33 -134 5 -22 8 -44 5 -48 -3 -4 -1 -8 5 -8
5 0 10 -8 10 -17 0 -27 41 -187 50 -196 4 -4 77 -7 162 -7 85 0 172 0 194 -1
22 -1 46 -1 53 0 25 2 35 2 157 2 11 0 38 0 60 0 22 0 47 0 55 0 8 0 38 0 65
0 28 0 57 0 65 -1 8 0 33 0 55 1 22 1 46 1 53 0 6 0 90 0 185 0 94 0 190 -1
212 -2 22 -1 46 -1 53 0 25 2 35 2 157 2 11 0 38 0 60 0 22 0 46 0 53 0 6 0
32 0 57 0 25 0 53 0 63 -1 62 -1 96 1 100 4 2 3 14 1 27 -4 28 -11 52 5 59 40
3 14 7 34 10 45 10 39 28 110 30 120 1 6 5 15 8 21 4 6 9 21 11 35 3 13 10 44
17 69 7 25 13 50 15 55 1 6 4 17 7 25 8 22 51 182 53 200 1 8 5 22 8 30 8 22
69 243 72 260 1 8 8 35 14 60 7 25 13 46 12 47 0 2 6 21 14 43 8 22 14 42 15
45 0 3 0 6 1 8 0 1 2 9 4 17 1 8 10 40 19 70 9 30 16 56 16 58 0 1 0 3 1 5 0
1 2 9 4 17 2 8 6 24 9 35 3 11 12 45 20 75 7 30 19 67 25 83 6 15 9 27 7 27
-2 0 4 27 14 60 10 33 16 60 13 60 -3 0 0 6 6 14 6 8 11 18 10 22 -1 5 1 16 4
24 7 17 34 122 42 160 3 14 8 32 11 40 8 22 36 122 39 140 1 8 8 35 15 60 7
25 14 50 16 56 4 20 35 128 41 144 3 8 7 22 9 30 8 46 16 75 24 90 5 10 7 20
4 23 -3 3 -2 12 2 19 5 7 9 20 11 28 1 8 13 53 27 100 13 47 27 101 31 120 4
19 10 40 13 45 4 6 8 18 9 27 2 9 20 81 42 160 22 78 37 146 35 150 -3 4 0 8
7 8 7 0 10 3 7 6 -3 3 4 39 17 80 13 41 21 74 19 74 -2 0 1 12 7 28 6 15 13
38 15 52 3 14 12 48 20 75 7 28 14 53 14 57 1 4 7 26 15 48 8 22 12 40 10 40
-3 0 2 17 10 38 8 20 17 51 20 67 8 38 13 60 15 60 2 0 5 14 14 53 3 12 7 26
10 30 3 5 7 19 10 33 6 31 11 47 36 139 11 41 22 82 24 90 10 40 119 441 131
480 7 25 17 61 21 80 11 48 11 49 14 55 1 3 4 10 5 15 1 6 3 11 5 13 2 2 5 18
13 59 3 14 10 35 16 46 6 11 8 22 5 25 -3 3 -1 14 4 24 6 10 12 32 16 48 3 17
24 95 46 175 23 80 43 154 46 165 5 28 10 48 17 65 3 8 24 85 47 170 23 85 47
176 54 202 11 41 11 47 -3 50 -13 3 -1554 2 -1617 -1 -11 -1 -21 -7 -21 -13
-1 -14 -12 -79 -19 -109 -2 -11 -6 -27 -8 -38 -2 -10 -7 -34 -10 -52 -3 -19
-15 -79 -26 -134 -21 -98 -31 -158 -33 -182 0 -7 -4 -13 -9 -13 -5 0 -7 -4 -4
-9 4 -5 0 -40 -8 -78 -24 -110 -33 -156 -40 -195 -2 -13 -9 -44 -15 -70 -6
-27 -11 -51 -10 -55 1 -5 0 -10 -1 -13 -2 -7 -7 -28 -14 -65 -3 -16 -10 -55
-16 -85 -7 -30 -14 -68 -17 -85 -3 -16 -6 -34 -8 -40 -3 -17 -16 -79 -20 -100
-2 -11 -4 -20 -5 -20 -1 0 -3 -15 -6 -34 -4 -37 -8 -56 -22 -111 -5 -20 -8
-43 -6 -53 1 -9 -3 -17 -9 -17 -5 0 -8 -2 -5 -5 5 -5 0 -39 -17 -115 -7 -32
-13 -67 -20 -105 -3 -16 -8 -41 -10 -55 -3 -14 -7 -36 -10 -50 -3 -14 -9 -47
-15 -75 -6 -27 -12 -61 -15 -75 -3 -14 -16 -81 -30 -150 -13 -69 -27 -138 -30
-155 -3 -16 -8 -41 -11 -55 -11 -61 -25 -127 -30 -150 -3 -14 -8 -36 -9 -50
-2 -14 -6 -36 -10 -50 -3 -14 -8 -38 -11 -55 -2 -16 -13 -73 -24 -125 -10 -52
-21 -106 -23 -120 -3 -14 -12 -59 -20 -100 -20 -93 -26 -126 -33 -170 -3 -19
-7 -42 -10 -50 -3 -8 -8 -26 -10 -40 -8 -51 -13 -75 -14 -75 -1 0 -3 -9 -5
-20 -10 -65 -17 -102 -21 -115 -3 -8 -8 -29 -10 -46 -2 -17 -13 -75 -25 -130
-26 -126 -30 -145 -45 -229 -2 -11 -6 -33 -10 -50 -3 -16 -6 -38 -7 -47 -1
-10 -4 -14 -8 -10 -6 7 -40 138 -54 207 -2 11 -6 27 -8 35 -8 32 -17 68 -38
160 -11 52 -25 109 -30 126 -5 17 -12 41 -14 53 -3 11 -7 31 -10 44 -3 12 -7
33 -10 47 -3 14 -14 61 -25 105 -12 44 -24 94 -27 110 -7 40 -9 47 -16 65 -5
13 -35 142 -68 290 -7 30 -12 58 -11 63 1 4 -2 7 -7 7 -5 0 -8 8 -6 18 1 9 -2
27 -6 40 -5 12 -11 33 -13 45 -7 30 -10 46 -41 172 -15 61 -29 119 -30 130 -2
11 -13 58 -25 105 -12 47 -23 94 -25 105 -1 11 -6 28 -9 37 -4 9 -9 25 -11 35
-2 10 -4 18 -5 18 -1 0 -3 14 -5 30 -4 26 -7 42 -21 90 -5 17 -15 59 -20 83
-4 19 -35 148 -59 242 -2 8 -11 47 -19 85 -9 39 -18 77 -20 85 -3 8 -14 56
-26 105 -11 50 -34 144 -50 210 -16 66 -31 129 -33 140 -1 11 -6 26 -11 33 -4
7 -5 16 -2 19 3 3 1 12 -4 19 -6 6 -10 16 -8 20 2 7 -30 144 -69 297 -3 12 -6
32 -7 45 0 12 -5 22 -10 22 -5 0 -7 3 -4 6 4 3 2 20 -3 37 -6 18 -12 41 -14
52 -3 11 -14 56 -24 100 -11 44 -22 91 -25 105 -8 36 -23 99 -35 144 -5 22 -8
44 -5 48 3 4 -1 8 -8 9 -65 5 -1842 2 -1850 -2 -6 -4 -14 -26 -19 -50 -4 -24
-11 -54 -14 -66 -12 -50 -14 -60 -24 -103 -19 -73 -21 -84 -27 -115 -9 -44
-12 -60 -14 -60 -1 0 -4 -11 -6 -25 -3 -14 -9 -43 -15 -65 -6 -22 -13 -51 -16
-64 -2 -13 -8 -32 -13 -41 -5 -10 -8 -19 -5 -21 2 -2 -5 -40 -16 -84 -22 -91
-27 -112 -33 -140 -4 -18 -30 -127 -43 -180 -2 -11 -6 -29 -8 -40 -7 -37 -56
-240 -62 -255 -4 -8 -6 -18 -5 -22 1 -3 -5 -30 -13 -60 -11 -44 -88 -373 -100
-428 -2 -8 -8 -27 -13 -41 -6 -15 -9 -29 -6 -32 2 -2 0 -16 -6 -31 -5 -15 -12
-41 -15 -59 -4 -18 -20 -88 -36 -157 -17 -69 -39 -161 -49 -205 -10 -44 -31
-129 -45 -190 -15 -60 -28 -119 -30 -130 -3 -11 -9 -38 -14 -60 -8 -32 -24
-103 -37 -157 -1 -5 -3 -10 -4 -13 -1 -3 -3 -8 -4 -12 -3 -14 -19 -88 -22
-100 -1 -7 -9 -40 -18 -75 -8 -35 -17 -74 -20 -88 -3 -14 -9 -40 -15 -57 -5
-18 -8 -33 -6 -33 3 0 0 -11 -5 -26 -6 -14 -12 -39 -15 -57 -4 -17 -10 -36
-15 -43 -6 -6 -7 -13 -5 -16 3 -3 1 -25 -5 -49 -6 -24 -13 -53 -15 -64 -2 -11
-11 -49 -20 -85 -9 -36 -18 -74 -21 -85 -4 -22 -31 -136 -41 -175 -4 -14 -7
-27 -8 -30 0 -3 -5 -23 -10 -45 -5 -22 -9 -42 -10 -45 -1 -3 -5 -22 -9 -43 -8
-37 -22 -58 -23 -34 0 7 -3 26 -7 42 -3 17 -9 50 -12 75 -3 25 -10 55 -15 67
-5 13 -7 23 -4 23 2 0 -1 15 -6 33 -5 17 -12 52 -15 77 -3 25 -8 48 -10 51 -2
3 -6 21 -9 40 -3 19 -8 41 -10 49 -2 8 -7 31 -10 50 -3 19 -10 55 -15 80 -5
25 -12 57 -15 73 -3 15 -8 39 -11 55 -3 15 -7 36 -9 47 -3 22 -44 228 -51 260
-3 11 -6 29 -8 40 -2 11 -8 45 -14 75 -6 30 -14 66 -16 80 -3 14 -7 36 -10 50
-3 14 -9 41 -12 60 -10 52 -11 59 -28 140 -16 80 -23 114 -31 158 -3 15 -8 38
-11 52 -3 14 -8 39 -11 55 -2 17 -8 45 -13 64 -5 19 -7 38 -4 43 3 4 2 8 -3 8
-4 0 -8 10 -9 23 0 12 -4 36 -8 52 -4 17 -9 39 -11 50 -10 53 -16 82 -21 105
-3 14 -7 36 -9 50 -2 14 -13 70 -24 125 -11 55 -23 111 -25 125 -3 14 -7 36
-10 50 -3 14 -10 50 -16 80 -6 30 -13 66 -16 80 -3 14 -7 34 -9 45 -2 11 -6
31 -9 45 -10 45 -16 75 -21 110 -3 19 -8 42 -11 51 -2 10 -7 30 -9 45 -7 40
-14 75 -35 179 -11 50 -22 106 -25 125 -3 19 -8 44 -10 55 -2 11 -7 34 -10 50
-3 17 -8 37 -11 46 -2 9 -7 32 -9 50 -6 40 -13 74 -15 74 -1 0 -3 9 -4 20 -2
11 -22 117 -46 235 -24 118 -44 224 -46 235 -1 11 -3 20 -4 20 -1 0 -3 9 -5
20 -7 41 -11 55 -18 62 -7 6 -1716 12 -1736 5z"/>
<path d="M39451 25870 c-5 -4 -8 -5674 -2 -5702 1 -8 111 -15 111 -7 0 3 25 2
55 -1 30 -3 55 -3 55 0 0 4 22 4 49 0 27 -3 57 -3 67 0 10 4 34 4 54 0 20 -4
45 -4 55 0 10 4 33 4 49 0 17 -3 47 -3 66 0 19 3 46 3 60 0 14 -4 39 -3 55 0
17 3 41 4 55 0 14 -3 44 -3 68 0 23 4 45 4 47 0 2 -4 27 -4 55 0 28 4 53 4 55
0 2 -3 31 -3 64 0 34 3 61 3 61 0 0 -6 219 -4 226 2 2 3 24 2 49 -2 24 -4 49
-4 55 0 6 4 30 4 54 0 24 -3 51 -3 62 0 10 4 33 4 50 0 18 -4 37 -4 43 0 7 4
32 4 56 0 24 -4 50 -3 57 1 11 6 13 486 13 2860 l0 2853 -868 0 c-478 1 -872
-1 -876 -4z"/>
<path d="M42213 25867 c-2 -4 23 -45 56 -91 34 -46 61 -89 61 -95 0 -6 3 -11
8 -11 4 0 18 -18 32 -40 14 -22 28 -40 32 -40 5 0 8 -5 8 -10 0 -9 35 -65 50
-80 3 -3 34 -48 69 -100 36 -52 68 -97 71 -100 3 -3 17 -23 30 -45 13 -22 32
-48 41 -58 9 -9 22 -30 30 -45 8 -15 17 -29 20 -32 6 -5 43 -57 141 -200 28
-41 55 -76 60 -78 4 -2 8 -8 8 -14 0 -8 55 -93 70 -108 3 -3 23 -32 45 -65 22
-33 43 -62 46 -65 3 -3 14 -20 24 -37 11 -18 23 -33 27 -33 4 0 8 -7 8 -15 0
-8 5 -15 10 -15 6 0 10 -7 10 -15 0 -8 4 -15 8 -15 4 0 16 -15 27 -32 26 -44
230 -339 249 -360 9 -10 16 -21 16 -25 0 -3 18 -30 40 -59 22 -29 40 -56 40
-59 0 -4 6 -13 13 -20 6 -7 27 -35 45 -62 18 -26 97 -141 175 -254 78 -113
147 -213 152 -221 31 -48 101 -145 112 -156 7 -7 13 -17 13 -22 0 -5 6 -15 13
-22 24 -26 57 -77 57 -88 0 -7 -16 -36 -35 -66 -19 -30 -52 -80 -72 -111 -20
-32 -40 -59 -45 -61 -4 -2 -8 -10 -8 -17 0 -8 -6 -20 -14 -27 -7 -8 -23 -33
-35 -56 -12 -23 -26 -42 -31 -42 -5 0 -12 -9 -15 -20 -5 -17 -57 -101 -83
-135 -6 -8 -148 -229 -399 -620 -18 -27 -36 -55 -41 -61 -5 -5 -15 -21 -22
-35 -7 -13 -16 -26 -19 -29 -10 -8 -31 -44 -37 -62 -4 -10 -10 -18 -14 -18 -4
0 -13 -13 -20 -30 -7 -16 -16 -30 -21 -30 -5 0 -9 -6 -9 -13 0 -8 -11 -27 -25
-43 -14 -16 -25 -35 -25 -41 0 -7 -4 -13 -10 -13 -5 0 -10 -7 -10 -15 0 -8 -4
-15 -10 -15 -5 0 -10 -4 -10 -10 0 -5 -17 -35 -39 -67 -90 -136 -157 -240
-170 -265 -7 -16 -17 -28 -22 -28 -5 0 -9 -5 -9 -12 0 -6 -11 -26 -25 -44 -14
-18 -25 -37 -25 -43 0 -6 -4 -11 -10 -11 -5 0 -10 -5 -10 -10 0 -6 -40 -71
-90 -146 -49 -75 -90 -139 -90 -143 0 -4 -8 -16 -17 -27 -21 -23 -40 -52 -50
-74 -4 -8 -9 -17 -13 -20 -6 -6 -39 -55 -56 -85 -6 -11 -61 -97 -123 -192 -61
-95 -111 -175 -111 -178 0 -3 15 -5 33 -5 119 1 141 2 147 5 3 2 12 0 18 -4 7
-4 33 -5 57 -1 25 4 47 5 49 2 7 -6 116 -8 116 -1 0 3 25 2 55 -1 30 -3 55 -4
55 -1 0 4 35 5 77 3 43 -1 96 -2 118 -2 22 1 47 1 55 1 74 -2 113 0 120 4 5 3
11 2 14 -3 3 -5 28 -6 56 -2 27 4 52 5 54 2 9 -8 136 -7 136 1 0 5 5 5 10 2 9
-5 41 -6 180 -4 8 0 43 -2 78 -3 34 -2 62 0 62 3 0 3 21 3 48 0 26 -4 68 -4
95 -1 26 3 47 3 47 0 0 -4 115 -4 130 0 3 1 19 1 35 1 41 -2 48 5 85 74 18 33
39 67 46 76 8 9 11 19 7 22 -3 4 -2 7 4 7 6 0 16 14 23 30 7 17 17 30 22 30 5
0 7 4 4 9 -3 5 3 19 13 32 10 13 26 40 36 59 10 19 21 37 24 40 3 3 21 34 40
70 19 36 37 67 40 70 3 3 14 21 25 40 27 50 51 93 109 190 27 47 59 101 70
120 74 132 172 298 185 313 8 9 12 17 8 17 -4 0 2 12 13 26 12 15 21 32 21 40
0 7 3 14 8 16 9 4 41 57 49 81 3 9 10 17 15 17 5 0 7 4 4 9 -3 4 2 18 12 29 9
12 35 53 57 92 22 38 42 70 46 70 3 0 28 -35 57 -77 28 -43 79 -116 111 -163
33 -47 95 -137 137 -200 43 -63 82 -116 86 -118 4 -2 8 -10 8 -17 0 -7 3 -15
8 -17 4 -1 27 -32 51 -68 25 -36 50 -68 55 -72 6 -4 7 -8 2 -8 -5 0 0 -10 11
-22 11 -13 53 -72 94 -133 41 -60 76 -112 79 -115 6 -6 85 -119 146 -210 24
-36 57 -83 74 -105 16 -22 34 -49 39 -60 5 -12 16 -27 25 -34 9 -7 16 -18 16
-23 0 -5 9 -18 20 -30 11 -12 20 -28 20 -35 0 -7 4 -13 10 -13 5 0 16 -14 25
-30 12 -22 23 -30 43 -30 45 0 115 1 121 2 3 0 8 0 11 -1 19 -7 230 -4 230 2
0 5 4 6 8 3 9 -5 69 -7 172 -6 36 1 67 1 70 0 20 -4 230 -4 230 1 0 3 25 2 55
-1 30 -3 60 -3 65 0 6 4 33 3 61 0 27 -4 52 -4 54 0 2 4 24 4 47 0 24 -3 54
-3 68 0 14 4 39 3 55 0 17 -4 41 -4 55 0 14 3 36 4 50 0 14 -3 44 -3 67 0 23
4 47 4 53 0 6 -4 31 -4 56 0 24 4 47 4 49 0 3 -4 22 -4 43 0 21 3 47 4 58 0
10 -4 30 -4 44 0 14 3 36 4 50 0 14 -3 39 -3 55 0 17 3 41 3 55 0 14 -4 32 -5
42 -2 14 3 11 11 -15 50 -17 26 -35 49 -39 50 -4 2 -8 10 -8 18 0 8 -3 14 -8
14 -4 0 -12 9 -17 19 -8 16 -136 203 -162 237 -4 5 -12 17 -18 26 -15 23 -152
221 -162 233 -5 6 -40 56 -78 112 -39 56 -80 117 -93 135 -12 18 -28 42 -35
52 -6 10 -23 32 -35 47 -13 16 -21 29 -17 29 3 0 -1 7 -10 17 -9 9 -27 32 -40
52 -13 20 -51 74 -84 121 -34 47 -64 92 -68 100 -4 8 -11 20 -15 25 -4 6 -19
24 -33 41 -14 18 -25 35 -25 39 0 3 -6 13 -12 20 -24 27 -34 40 -41 55 -4 8
-26 42 -50 75 -23 33 -83 119 -132 190 -49 72 -97 139 -107 149 -10 11 -18 23
-18 28 0 4 -7 16 -15 25 -21 27 -251 359 -272 393 -9 17 -21 30 -25 30 -4 0
-8 6 -8 13 0 7 -10 24 -22 38 -13 14 -27 33 -33 42 -24 39 -132 194 -147 211
-10 11 -18 25 -18 32 0 7 -4 14 -8 16 -10 4 -72 94 -72 104 0 8 99 164 110
174 3 3 28 39 55 80 132 204 241 365 247 368 5 2 8 8 8 13 0 10 62 103 73 107
4 2 7 10 7 18 0 8 5 14 10 14 6 0 10 6 10 14 0 8 6 21 13 28 7 7 40 54 73 103
32 50 62 92 67 93 4 2 7 8 7 14 0 6 11 26 25 44 14 18 25 37 25 42 0 6 4 12 8
14 11 4 72 97 72 109 0 5 7 12 15 15 8 4 15 10 15 15 0 4 100 158 223 341 122
183 224 337 226 343 2 5 22 33 43 61 21 28 38 56 38 62 0 7 3 12 8 12 4 0 16
17 27 37 11 20 25 41 30 47 17 18 150 220 153 234 2 6 8 12 13 12 5 0 9 6 9
13 0 7 11 24 25 39 14 15 25 30 25 33 0 3 42 67 93 143 50 75 94 142 96 147 2
6 14 24 26 40 12 17 25 35 28 40 3 7 -308 9 -926 8 -513 -1 -939 -2 -949 -2
-15 -1 -128 -178 -128 -202 0 -5 -4 -9 -9 -9 -5 0 -11 -8 -14 -17 -4 -10 -20
-40 -37 -68 -17 -27 -33 -57 -37 -65 -3 -8 -12 -22 -18 -30 -7 -8 -25 -37 -40
-65 -29 -51 -82 -144 -100 -173 -5 -10 -32 -55 -59 -102 -27 -47 -54 -88 -60
-92 -6 -4 -7 -8 -3 -8 6 0 -24 -53 -71 -126 -7 -10 -19 -32 -28 -49 -8 -16
-24 -43 -34 -60 -11 -16 -27 -43 -35 -60 -8 -16 -31 -55 -50 -85 -19 -30 -40
-66 -45 -80 -6 -13 -14 -27 -18 -30 -4 -3 -13 -16 -20 -30 -7 -14 -23 -43 -37
-65 -13 -22 -28 -49 -34 -60 -5 -11 -20 -37 -33 -58 l-24 -38 -22 30 c-63 86
-142 203 -142 211 0 6 -4 10 -8 10 -5 0 -32 35 -60 78 -28 42 -68 102 -90 132
-72 103 -129 185 -173 250 -24 36 -47 67 -50 70 -3 3 -25 34 -49 70 -24 36
-47 67 -52 68 -4 2 -8 8 -8 13 0 5 -22 39 -50 77 -27 38 -50 74 -50 79 0 6 -4
13 -9 15 -4 2 -32 37 -60 78 -190 276 -223 323 -236 336 -7 8 -17 23 -20 34
-3 11 -12 20 -18 21 -72 5 -1950 2 -1954 -4z"/>
</g>
</svg>
